<svg xmlns="http://www.w3.org/2000/svg" viewBox="0 0 154.94 157.33"><defs><style>.cls-1{fill:#07c7df;}.cls-2{fill:#00b5e5;}.cls-3{fill:#00e3d4;}.cls-4{fill:#0edbd9;}</style></defs><g id="Layer_2" data-name="Layer 2"><g id="Layer_1-2" data-name="Layer 1"><path class="cls-1" d="M22.65,100.31c-5.65,0-11.3,0-17,0-3.94,0-5.7-1.75-5.67-5.76C.13,83.26.11,72,0,60.65c0-3.74,1.55-5.45,5.36-5.42q17,.14,33.92,0c4,0,5.85,1.64,5.83,5.63,0,11.14-.06,22.28,0,33.42,0,4.22-1.94,6.08-6.06,6C33.63,100.28,28.14,100.32,22.65,100.31Zm-1.28-8.75c4.62,0,8.45-.11,12.27,0,2.63.11,3.44-.94,3.39-3.49q-.18-10.47,0-21c0-2.45-.53-3.63-3.29-3.57q-11,.21-22,0c-2.63-.05-3.53.91-3.42,3.48.16,3.65-.06,7.32.07,11,.15,4.29-1.84,9.83.8,12.53C12.11,93.5,17.76,91.09,21.37,91.56Z"/><path class="cls-1" d="M77.6,55.26c5.49,0,11,.13,16.46,0,4.3-.12,6,2,6,6q0,16.7,0,33.4c0,3.62-1.78,5.65-5.44,5.66-11.47,0-22.94,0-34.41,0-3.67,0-5.36-1.76-5.32-5.56.11-11.3.09-22.6,0-33.9,0-4,1.68-5.73,5.71-5.63C66.3,55.38,72,55.26,77.6,55.26Zm-1,36.3h2.77c12.52,0,12.63,0,12.47-12.73-.06-4.91,2.17-11.23-1-14.34-3-2.88-9.2-.77-14-.79-4.28,0-9.83-1.88-12.51.77-2.92,2.87-.83,8.5-.95,12.92s-1.47,10.25.75,13C66.76,93.71,72.84,90.94,76.61,91.56Z"/><path class="cls-1" d="M132.57,55.26c5.49,0,11,.11,16.48,0,3.73-.1,5.79,1.55,5.82,5.19q.13,17.49,0,35c0,3.17-2,4.89-5.12,4.91q-17.49.08-35,0c-3.09,0-4.91-1.57-4.9-5,0-11.66,0-23.31,0-35,0-3.49,1.64-5.16,5.2-5.11C120.91,55.33,126.74,55.26,132.57,55.26Zm0,36.3c3.49,0,7-.12,10.47,0,2.66.12,3.92-.58,3.84-3.57-.18-7-.13-14,0-20.93,0-2.57-.85-3.54-3.46-3.5-7.31.11-14.62.14-21.93,0-2.78-.06-3.3,1.18-3.26,3.59.11,7,.12,14,0,20.94,0,2.56.78,3.59,3.41,3.48C125.24,91.44,128.9,91.56,132.55,91.56Z"/><path class="cls-2" d="M45,126.29c.06,8.49.06,17,.18,25.45.05,3.76-1.76,5.54-5.41,5.55q-17.22,0-34.44,0c-3.36,0-5.3-1.4-5.25-5.07.13-8.65.14-17.3.21-25.95H8.19c.07,6.46.27,12.91.16,19.36,0,2.82.85,3.74,3.68,3.67q10.68-.26,21.36,0c2.82.07,3.73-.83,3.67-3.66-.12-6.45.07-12.9.14-19.36Z"/><path class="cls-2" d="M99.93,127.29c.06,8,.09,16,.17,23.93,0,4.06-1.75,6.14-6,6.11q-16.71-.12-33.41,0c-3.88,0-5.84-1.51-5.75-5.63.18-8.46.16-16.94.23-25.41H63.1c.07,6.45.26,12.91.15,19.36-.06,2.82.86,3.72,3.68,3.66q10.68-.26,21.36,0c2.82.06,3.73-.84,3.68-3.66-.12-6.45.08-12.91.15-19.36A19,19,0,0,1,99.93,127.29Z"/><path class="cls-3" d="M.25,24.35C.19,18,.2,11.71.05,5.39,0,1.84,1.55.06,5,.05Q22.53,0,40,0c3.55,0,5.12,2,5.11,5.34,0,8-.09,16-.14,24H37.19c-.06-5.78-.26-11.57-.13-17.34.07-2.83-.85-3.72-3.66-3.66-7.1.17-14.22.17-21.32,0C9.31,8.29,8.24,9.11,8.34,12c.16,4.12-.07,8.25-.14,12.38Z"/><path class="cls-2" d="M154.69,135.28c.07,5.48.16,11,.2,16.43,0,3.93-1.94,5.65-5.89,5.62-11.14-.09-22.27-.07-33.41,0-3.57,0-5.75-1.2-5.71-5.13.1-8.64.15-17.28.22-25.91l7.92,1c.07,6.12.26,12.24.14,18.35-.06,2.82.83,3.73,3.65,3.67,7.28-.17,14.57-.13,21.85,0,2.34,0,3.24-.73,3.19-3.12-.08-4,.1-7.93.18-11.9A19.93,19.93,0,0,0,154.69,135.28Z"/><path class="cls-3" d="M110.09,24.36C110,17.9,110,11.45,109.9,5c-.06-3.66,1.86-5,5.26-5,11.44,0,22.87.07,34.3,0,3.82,0,5.45,1.86,5.43,5.46,0,6.29-.12,12.58-.19,18.87-2.57.26-5,1.49-7.68,1-.07-4.46-.22-8.91-.17-13.37,0-2.32-.35-3.69-3.2-3.63-7.43.16-14.87.12-22.31,0-2.33,0-3.21.73-3.17,3.12.09,4.62-.08,9.24-.14,13.86C115.28,25.87,112.77,24.41,110.09,24.36Z"/><path class="cls-3" d="M55.17,24.36c-.07-6.3-.06-12.6-.21-18.89C54.86,1.72,56.46,0,60.26,0Q77.42.11,94.57,0c3.77,0,5.5,1.86,5.5,5.45,0,6.3-.08,12.59-.13,18.89H92.11C92,20.23,91.89,16.1,92,12c0-2.33-.33-3.68-3.18-3.62q-11.16.24-22.31,0C63.62,8.3,63.22,9.63,63.27,12c.07,3.8-.1,7.59-.16,11.39C60.43,23.41,57.92,24.87,55.17,24.36Z"/><path class="cls-4" d="M55.17,24.36c2.75.51,5.26-.95,7.94-1,.07,3.3.29,6.6.18,9.89-.09,2.56.83,3.54,3.42,3.46,4.29-.15,8.59.09,12.88-.08,3.91-.15,8.8,1.7,11.47-.82,2.49-2.36.4-7.24,1-11,0-.17.07-.33.1-.49h7.83c.06,5,.11,10,.18,15,0,3.69-1.85,5.64-5.46,5.66q-17.22.09-34.44,0c-3.28,0-5.36-1.49-5.28-5.16C55.06,34.66,55.1,29.51,55.17,24.36Z"/><path class="cls-4" d="M110.09,24.36c2.68.05,5.19,1.51,7.94,1a57.13,57.13,0,0,1,.16,6.91c-.33,3.46.92,4.71,4.42,4.47,3.94-.27,7.92.07,11.87-.1s8.68,1.65,11.5-.82c2.52-2.19.25-6.91,1-10.45,2.67.46,5.11-.77,7.68-1,.08,5,.15,10,.24,15C155,43,153.2,45,149.54,45c-11.48.05-23,.07-34.43,0-3,0-5.26-1.16-5.21-4.67C110,35,109.24,29.66,110.09,24.36Z"/><path class="cls-1" d="M118,127.28l-7.92-1c-.76-15.69-.67-14,12.61-14h26c2.57,0,5.15,0,5.59,3.42.14.5.29,1,.44,1.49l0,18.09a19.93,19.93,0,0,1-7.66-1c-.08-3.29-.3-6.59-.19-9.88.07-2.56-.85-3.52-3.43-3.46a177.44,177.44,0,0,1-18.31-.09C119.9,120.4,117.32,121.76,118,127.28Z"/><path class="cls-4" d="M.25,24.35h8c.07,2.8.33,5.61.16,8.39-.19,3,.92,4.08,4,4,5.6-.19,11.21,0,16.82,0,7.56,0,7.56,0,8.06-7.32H45c.06,3.33.08,6.65.18,10,.12,3.76-1.86,5.62-5.42,5.65q-17.21.12-34.43,0c-3.56,0-5.46-1.8-5.3-5.65C.22,34.33.18,29.34.25,24.35Z"/><path class="cls-1" d="M63.1,126.28H55.18c-.74-15.81-.77-14,13-14,8.47,0,16.94.15,25.4-.06,4.82-.12,6.63,2.14,6.51,6.62-.08,2.81-.12,5.63-.18,8.45a19,19,0,0,0-7.81-1c.34-4.09-1.12-5.8-5.6-5.44a115.23,115.23,0,0,1-17.82,0C64.22,120.48,62.76,122.19,63.1,126.28Z"/><path class="cls-1" d="M8.19,126.27H.26c-.74-16-.56-14,13.06-14q12.46,0,24.92,0c5.77,0,6.89,1.17,6.9,7,0,2.32-.11,4.64-.17,7H37.2c.36-4.09-1.09-5.79-5.58-5.44a114.84,114.84,0,0,1-17.79,0C9.35,120.49,7.89,122.2,8.19,126.27Z"/><path class="cls-4" d="M154.72,117.19c-.15-.5-.3-1-.44-1.49C154.42,116.2,154.57,116.69,154.72,117.19Z"/></g></g></svg>